<?xml version="1.0" encoding="UTF-8"?>
<svg version="1.1" xmlns="http://www.w3.org/2000/svg" width="512" height="512">
<path d="M0 0 C0.86757935 0.00304138 1.73515869 0.00608276 2.62902832 0.00921631 C55.06611222 0.27983294 102.87921667 22.01609508 139.76904297 58.89355469 C165.18685074 84.81147121 181.33611378 118.28897367 189.3125 153.4375 C189.47766113 154.12021973 189.64282227 154.80293945 189.81298828 155.50634766 C195.65543529 180.41680168 194.08765217 209.73294602 188.3125 234.4375 C188.13058105 235.25057617 187.94866211 236.06365234 187.76123047 236.90136719 C175.78242064 289.59100257 147.13484595 340.27306791 115.3125 383.4375 C114.51798335 384.5539669 113.72636893 385.67250417 112.9375 386.79296875 C106.31197386 396.20116246 99.35953758 405.34203101 92.3125 414.4375 C91.58281006 415.38206055 91.58281006 415.38206055 90.83837891 416.34570312 C85.04384747 423.83673236 79.08310249 431.15279245 72.9296875 438.3515625 C70.50558244 441.19355565 68.15518601 444.09040065 65.8125 447 C61.68559794 452.07357493 57.31147442 456.87491142 52.8671875 461.66796875 C50.81136278 463.89668393 48.79633043 466.14517919 46.8125 468.4375 C9.1644589 511.76826429 9.1644589 511.76826429 0.6875 512.9375 C-5.12383906 512.7821166 -7.79494001 509.41628759 -11.6875 505.4375 C-12.88365924 504.26123102 -14.08174808 503.08692259 -15.28125 501.9140625 C-21.02640378 496.25984227 -26.62850907 490.57331144 -31.89916992 484.47094727 C-35.01716605 480.92558347 -38.30231273 477.53905115 -41.5625 474.125 C-46.82957851 468.57341003 -51.85609133 462.96866452 -56.6171875 456.9765625 C-58.8802242 454.20114014 -61.26142151 451.5713161 -63.6875 448.9375 C-68.58080483 443.60756181 -73.16138947 438.08034695 -77.6875 432.4375 C-78.58811312 431.32907874 -79.48917508 430.22102207 -80.390625 429.11328125 C-120.81310448 379.24584816 -159.05660188 323.69778994 -179.6875 262.4375 C-180.01331055 261.47118652 -180.33912109 260.50487305 -180.67480469 259.50927734 C-186.80287638 241.03593786 -191.718023 221.75487602 -191.92578125 202.1875 C-191.9355751 201.42017548 -191.94536896 200.65285095 -191.95545959 199.86227417 C-192.51127743 144.97707832 -174.70018913 95.64504076 -136.19042969 55.96044922 C-112.02017776 31.46824137 -81.28254713 14.68128441 -48.1875 5.6875 C-47.51420654 5.50098877 -46.84091309 5.31447754 -46.1472168 5.12231445 C-30.92781647 1.20815231 -15.66514715 -0.11753584 0 0 Z M-58.6875 127.4375 C-59.43386719 128.08332031 -60.18023437 128.72914063 -60.94921875 129.39453125 C-76.20787571 143.6339459 -86.07051401 164.92281531 -87.06640625 185.66796875 C-87.80222147 212.45398505 -80.35425322 233.72338698 -62.625 253.76953125 C-47.16340826 270.07278222 -24.54290592 279.6466821 -2.203125 280.50390625 C21.5054272 280.05607804 42.65962044 272.47757495 60.3125 256.4375 C60.94414062 255.88707031 61.57578125 255.33664063 62.2265625 254.76953125 C77.23965023 240.88756657 86.61855415 219.51662989 87.7265625 199.3125 C88.56601605 173.61230677 81.91371201 151.54364835 64.3125 132.4375 C63.76335937 131.8084375 63.21421875 131.179375 62.6484375 130.53125 C48.0921811 114.75599676 25.47195895 105.61068512 4.2890625 104.46875 C-19.58168667 104.21813846 -40.70586375 111.81988306 -58.6875 127.4375 Z " fill="#000000" transform="translate(255.6875,-0.4375)"/>
</svg>
